<?xml version="1.0" encoding="utf-8"?>
<!-- Generator: Adobe Illustrator 21.0.0, SVG Export Plug-In . SVG Version: 6.00 Build 0)  -->
<svg version="1.1" id="Layer_1" xmlns="http://www.w3.org/2000/svg" xmlns:xlink="http://www.w3.org/1999/xlink" x="0px" y="0px"
	 viewBox="0 0 100 100" style="enable-background:new 0 0 100 100;" xml:space="preserve">
<style type="text/css">
	.st0{fill:#FFFFFF;stroke:#FFFFFF;stroke-miterlimit:10;}
</style>
<g>
	<circle class="st0" cx="58.8" cy="74" r="12.7"/>
	<path class="st0" d="M59.1,38.7c0.4,0,0.8,0,1.3,0c0.2,0,0.3,0,0.3,0l0,0c3-0.2,5.9-1.4,8.1-3.7c5-5,5-13,0-18s-13-5-18,0
		c-3,3-4.1,7-3.6,10.8c-1.4,7.8-8.7,8.9-11.9,9c-3.6-0.3-7.2,1-9.9,3.7c-5,5-5,13,0,18c5,5,13,5,18,0c2.3-2.3,3.5-5.2,3.7-8.2
		c0-0.2,0-0.5,0-0.7C47.4,40.1,55.6,38.8,59.1,38.7z"/>
</g>
</svg>
